<?xml version="1.0" encoding="utf-8"?>
<!-- Generator: Adobe Illustrator 27.5.0, SVG Export Plug-In . SVG Version: 6.00 Build 0)  -->
<svg version="1.1" xmlns="http://www.w3.org/2000/svg" xmlns:xlink="http://www.w3.org/1999/xlink" x="0px" y="0px"
	 viewBox="0 0 750 500" style="enable-background:new 0 0 750 500;" xml:space="preserve">
<g id="BACKGROUND">
	<linearGradient id="SVGID_1_" gradientUnits="userSpaceOnUse" x1="375" y1="248.011" x2="375" y2="-72.904">
		<stop  offset="0" style="stop-color:#96CCE3"/>
		<stop  offset="0.8091" style="stop-color:#4D8096"/>
	</linearGradient>
	<rect style="fill:url(#SVGID_1_);" width="750" height="500"/>
</g>
<g id="OBJECTS">
	<g>
		<defs>
			<rect id="SVGID_00000084531355910010627060000010730826124450194352_" width="750" height="500"/>
		</defs>
		<clipPath id="SVGID_00000175293011371325732430000016324823282099605162_">
			<use xlink:href="#SVGID_00000084531355910010627060000010730826124450194352_"  style="overflow:visible;"/>
		</clipPath>
		<g style="clip-path:url(#SVGID_00000175293011371325732430000016324823282099605162_);">
			<circle style="fill:#FFFFFF;" cx="29.628" cy="141.989" r="1.053"/>
			<path style="fill:#FFFFFF;" d="M185.226,32.875c0-0.582-0.471-1.053-1.053-1.053c-0.581,0-1.053,0.471-1.053,1.053
				c0,0.581,0.471,1.053,1.053,1.053C184.755,33.927,185.226,33.456,185.226,32.875z"/>
			<circle style="fill:#FFFFFF;" cx="315.514" cy="95.9" r="1.053"/>
			<circle style="fill:#FFFFFF;" cx="373.947" cy="120.998" r="1.053"/>
			<circle style="fill:#FFFFFF;" cx="96.613" cy="73.984" r="1.053"/>
			<path style="fill:#FFFFFF;" d="M105.051,63.394c0-0.582-0.471-1.053-1.053-1.053c-0.581,0-1.053,0.471-1.053,1.053
				c0,0.581,0.471,1.053,1.053,1.053C104.579,64.446,105.051,63.975,105.051,63.394z"/>
			<circle style="fill:#FFFFFF;" cx="532.394" cy="108.239" r="1.053"/>
			<circle style="fill:#FFFFFF;" cx="650.459" cy="62.341" r="1.053"/>
			<circle style="fill:#FFFFFF;" cx="252.346" cy="94.848" r="1.053"/>
			<path style="fill:#FFFFFF;" d="M282.752,43.195c0-0.581-0.471-1.053-1.053-1.053c-0.582,0-1.053,0.471-1.053,1.053
				c0,0.582,0.471,1.053,1.053,1.053C282.28,44.248,282.752,43.777,282.752,43.195z"/>
			<path style="fill:#FFFFFF;" d="M404.48,89.186c0-0.581-0.471-1.053-1.053-1.053c-0.581,0-1.053,0.471-1.053,1.053
				s0.471,1.053,1.053,1.053C404.009,90.239,404.48,89.768,404.48,89.186z"/>
			<path style="fill:#FFFFFF;" d="M458.461,23.143c0-0.581-0.471-1.053-1.053-1.053c-0.582,0-1.053,0.471-1.053,1.053
				s0.471,1.053,1.053,1.053C457.99,24.196,458.461,23.724,458.461,23.143z"/>
			<path style="fill:#FFFFFF;" d="M480.341,131.949c0-0.581-0.471-1.053-1.053-1.053c-0.581,0-1.053,0.471-1.053,1.053
				c0,0.581,0.471,1.053,1.053,1.053C479.87,133.002,480.341,132.531,480.341,131.949z"/>
			<path style="fill:#FFFFFF;" d="M489.313,72.932c0-0.581-0.471-1.053-1.053-1.053c-0.581,0-1.053,0.471-1.053,1.053
				c0,0.581,0.471,1.053,1.053,1.053C488.842,73.984,489.313,73.513,489.313,72.932z"/>
			<path style="fill:#FFFFFF;" d="M712.703,18.033c0-0.581-0.471-1.053-1.053-1.053c-0.581,0-1.053,0.471-1.053,1.053
				c0,0.581,0.471,1.053,1.053,1.053C712.232,19.086,712.703,18.614,712.703,18.033z"/>
			<path style="fill:#FFFFFF;" d="M68.385,81.435c0-0.581-0.471-1.053-1.053-1.053c-0.581,0-1.053,0.471-1.053,1.053
				c0,0.581,0.471,1.053,1.053,1.053C67.914,82.488,68.385,82.016,68.385,81.435z"/>
			<path style="fill:#FFFFFF;" d="M212.132,107.186c0-0.581-0.471-1.053-1.053-1.053c-0.581,0-1.053,0.471-1.053,1.053
				s0.471,1.053,1.053,1.053C211.661,108.239,212.132,107.768,212.132,107.186z"/>
			<circle style="fill:#FFFFFF;" cx="556.571" cy="27.93" r="1.053"/>
			<path style="fill:#FFFFFF;" d="M464.876,101.201c0-0.581-0.471-1.053-1.053-1.053c-0.581,0-1.053,0.471-1.053,1.053
				s0.471,1.053,1.053,1.053C464.404,102.254,464.876,101.783,464.876,101.201z"/>
			<path style="fill:#FFFFFF;" d="M330.811,13.283c0-0.581-0.471-1.053-1.053-1.053c-0.581,0-1.053,0.471-1.053,1.053
				c0,0.582,0.471,1.053,1.053,1.053C330.34,14.336,330.811,13.865,330.811,13.283z"/>
			<path style="fill:#FFFFFF;" d="M281.699,123.103c0-0.581-0.471-1.053-1.053-1.053c-0.582,0-1.053,0.471-1.053,1.053
				c0,0.581,0.471,1.053,1.053,1.053C281.228,124.156,281.699,123.685,281.699,123.103z"/>
			<path style="fill:#FFFFFF;" d="M24.875,54.138c0-0.582-0.471-1.053-1.053-1.053c-0.581,0-1.053,0.471-1.053,1.053
				c0,0.581,0.471,1.053,1.053,1.053C24.403,55.191,24.875,54.72,24.875,54.138z"/>
			<g>
				
					<line style="fill:none;stroke:#FFFFFF;stroke-linecap:round;stroke-linejoin:round;stroke-miterlimit:10;" x1="265.571" y1="27.93" x2="265.571" y2="32.875"/>
				
					<line style="fill:none;stroke:#FFFFFF;stroke-linecap:round;stroke-linejoin:round;stroke-miterlimit:10;" x1="263.763" y1="30.402" x2="267.379" y2="30.402"/>
			</g>
			<g>
				
					<line style="fill:none;stroke:#FFFFFF;stroke-linecap:round;stroke-linejoin:round;stroke-miterlimit:10;" x1="312.654" y1="140.044" x2="312.654" y2="144.989"/>
				
					<line style="fill:none;stroke:#FFFFFF;stroke-linecap:round;stroke-linejoin:round;stroke-miterlimit:10;" x1="310.846" y1="142.516" x2="314.461" y2="142.516"/>
			</g>
			<g>
				
					<line style="fill:none;stroke:#FFFFFF;stroke-linecap:round;stroke-linejoin:round;stroke-miterlimit:10;" x1="577.455" y1="125.884" x2="577.455" y2="130.829"/>
				
					<line style="fill:none;stroke:#FFFFFF;stroke-linecap:round;stroke-linejoin:round;stroke-miterlimit:10;" x1="575.647" y1="128.356" x2="579.262" y2="128.356"/>
			</g>
			<g>
				
					<line style="fill:none;stroke:#FFFFFF;stroke-linecap:round;stroke-linejoin:round;stroke-miterlimit:10;" x1="676.005" y1="76.857" x2="676.005" y2="81.802"/>
				
					<line style="fill:none;stroke:#FFFFFF;stroke-linecap:round;stroke-linejoin:round;stroke-miterlimit:10;" x1="674.198" y1="79.329" x2="677.813" y2="79.329"/>
			</g>
			<g>
				
					<line style="fill:none;stroke:#FFFFFF;stroke-linecap:round;stroke-linejoin:round;stroke-miterlimit:10;" x1="380.093" y1="50.613" x2="380.093" y2="55.558"/>
				
					<line style="fill:none;stroke:#FFFFFF;stroke-linecap:round;stroke-linejoin:round;stroke-miterlimit:10;" x1="378.286" y1="53.085" x2="381.901" y2="53.085"/>
			</g>
			<g>
				
					<line style="fill:none;stroke:#FFFFFF;stroke-linecap:round;stroke-linejoin:round;stroke-miterlimit:10;" x1="84.181" y1="18.198" x2="84.181" y2="23.143"/>
				
					<line style="fill:none;stroke:#FFFFFF;stroke-linecap:round;stroke-linejoin:round;stroke-miterlimit:10;" x1="82.374" y1="20.67" x2="85.989" y2="20.67"/>
			</g>
			<g>
				
					<line style="fill:none;stroke:#FFFFFF;stroke-linecap:round;stroke-linejoin:round;stroke-miterlimit:10;" x1="13.049" y1="199.121" x2="13.049" y2="204.066"/>
				
					<line style="fill:none;stroke:#FFFFFF;stroke-linecap:round;stroke-linejoin:round;stroke-miterlimit:10;" x1="11.242" y1="201.593" x2="14.857" y2="201.593"/>
			</g>
		</g>
		<g style="clip-path:url(#SVGID_00000175293011371325732430000016324823282099605162_);">
			<path style="opacity:0.3;fill:#FFED65;" d="M173.201,186.138c29.345,12.863,44.596,50.971,32.226,80.528
				c-12.369,29.555-50.217,45.442-79.976,33.569c-29.76-11.872-46.278-49.449-34.905-79.403S140.064,171.613,173.201,186.138z"/>
			<path style="opacity:0.3;fill:#FFED65;" d="M162.645,210.143c16.889,7.403,25.666,29.335,18.547,46.345
				c-7.119,17.011-28.901,26.155-46.028,19.321c-17.128-6.833-26.634-28.459-20.089-45.699
				C121.62,212.871,143.574,201.784,162.645,210.143z"/>
			<path style="opacity:0.3;fill:#FFED65;" d="M156.763,223.524c9.946,4.359,15.114,17.275,10.922,27.293
				s-17.02,15.401-27.106,11.378c-10.086-4.025-15.685-16.76-11.83-26.912C132.604,225.13,145.532,218.601,156.763,223.524z"/>
			<path style="fill:#FFF982;" d="M154.329,229.061c7.073,3.1,10.749,12.285,7.767,19.409c-2.981,7.124-12.103,10.953-19.276,8.091
				c-7.173-2.861-11.154-11.918-8.413-19.138C137.148,230.204,146.342,225.56,154.329,229.061z"/>
		</g>
		
			<radialGradient id="SVGID_00000065039110844395302670000013359013786810226848_" cx="285.1866" cy="251.1759" r="605.1407" gradientUnits="userSpaceOnUse">
			<stop  offset="0" style="stop-color:#FFFFFF;stop-opacity:0"/>
			<stop  offset="1" style="stop-color:#FFFFFF"/>
		</radialGradient>
		
			<path style="opacity:0.75;clip-path:url(#SVGID_00000175293011371325732430000016324823282099605162_);fill:url(#SVGID_00000065039110844395302670000013359013786810226848_);" d="
			M-9.407,167.308c0,0,25.582-13.451,37.451,2.769c11.868,16.22,15.165,18.857,21.495,17.67c6.33-1.187,19.385-3.956,26.374,2.901
			c6.989,6.857-0.923,19.912,9.758,23.868c10.681,3.956,18.33,0.528,26.11,5.143c7.78,4.615,12.396,13.714,10.022,26.901h53.407
			c0,0,5.538-24.659,21.363-26.505c15.824-1.846,27.692,1.583,37.187-8.176c9.495-9.758,15.824-27.548,27.165-28.807
			c11.341-1.259,14.833,5.598,23.636,7.972c8.803,2.374,15.133-15.297,26.737-17.407c11.604-2.11,15.289,0.264,24.26,7.648
			c8.971,7.385,25.586,0.343,26.378-19.213c0.791-19.556,33.758-35.908,48.791-15.864c0,0,13.704-35.217,46.939-34.9
			c33.235,0.318,32.578,30.037,50.38,36.482c30.593,11.077,43.253-13.451,53.011-36.396c9.758-22.945,60.132-43.822,83.077,4.858
			c22.945,48.68,33.94,138.127,33.94,138.127H-9.407V167.308z"/>
		<path style="clip-path:url(#SVGID_00000175293011371325732430000016324823282099605162_);fill:#304354;" d="M164.694,247.994
			c19.849,2.285,38.042-11.769,51.444-25.411c13.402-13.643,27.373-30.024,46.464-31.162c20.08-1.197,38.193,15.447,58.222,13.579
			c22.29-2.079,35.43-24.909,51.142-40.857c30.902-31.365,83.701-38.215,121.584-15.774c14.699,8.706,29.353,21.772,46.235,19.154
			c10.611-1.646,19.126-9.274,27.386-16.134c54.162-44.981,125.135-69.22,195.497-66.767l-0.932,160.613l-596.426,21.99
			L164.694,247.994z"/>
		
			<radialGradient id="SVGID_00000098197036963176203410000015646186120988534713_" cx="265.4068" cy="258.2967" r="819.2994" gradientUnits="userSpaceOnUse">
			<stop  offset="0" style="stop-color:#FFFFFF;stop-opacity:0"/>
			<stop  offset="1" style="stop-color:#FFFFFF"/>
		</radialGradient>
		
			<path style="opacity:0.75;clip-path:url(#SVGID_00000175293011371325732430000016324823282099605162_);fill:url(#SVGID_00000098197036963176203410000015646186120988534713_);" d="
			M772.879,165.789c-7.036-5.463-16.515-7.651-25.234-5.826c-8.72,1.827-14.779,8.875-20.777,15.461
			c-7.509,8.245-16.27,14.134-25.074,19.685c-8.804,5.551-19.81,8.506-29.769,5.483c-8.152-2.475-15.176-8.744-23.686-9.16
			c-11.165-0.546-20.719,9.169-31.897,9.297c-14.322,0.164-24.46-14.989-38.52-17.723c-23.718-4.612-42.661,27.16-66.559,23.596
			c-8.258-1.232-15.711-6.714-24.058-6.483c-11.718,0.324-20.636,11.659-32.274,13.059c-7.82,0.94-15.336-2.759-22.889-4.987
			c-7.555-2.228-16.948-2.494-22.006,3.543c-15.564-12.258-36.326-11.347-46.563,0.725c-4.096,4.83-6.945,11.286-12.795,13.714
			c-9.459,3.927-19.16-5.11-29.314-6.449c-10.429-1.374-19.891,5.448-29.278,10.195c-15.034,7.602-32.5,10.297-49.125,7.578
			c-6.772-1.107-13.559-3.091-20.373-2.283c-6.813,0.808-13.848,5.471-14.526,12.298c-5.564,1.677-93.835-1.462-93.835-1.462
			c-0.196-6.672-6.26-11.765-12.505-14.124c-6.245-2.36-13.086-2.937-19.195-5.626c-6.261-2.755-11.946-7.748-18.786-7.691
			c-9.545,0.078-17.871,10.117-27.054,7.511c-7.135-2.025-10.491-10.786-17.427-13.412c-5.944-2.25-12.812,0.65-18.893-1.2
			c-5.592-1.702-9.245-6.977-14.137-10.178s-13.398-2.829-14.555,2.901v66.329h802.622L772.879,165.789z"/>
		<path style="clip-path:url(#SVGID_00000175293011371325732430000016324823282099605162_);fill:#3B5166;" d="M395.977,245.056
			c14.62,4.75,30.416-2.001,43.442-10.164c13.027-8.162,25.671-18.139,40.832-20.678c14.907-2.496,30.314,2.611,45.212,0.067
			c16.761-2.862,30.603-14.97,47.071-19.202c36.38-9.349,73.089,21.507,110.201,15.705c13.449-2.103,25.622-8.88,38.079-14.37
			c12.456-5.49,26.299-9.822,39.545-6.682l0.91,56.799l-355.767,8.881L395.977,245.056z"/>
	</g>
	<g>
		<defs>
			<rect id="SVGID_00000093883301706692935470000016378763789966299022_" width="750" height="500"/>
		</defs>
		<clipPath id="SVGID_00000114774635047706300630000015966304236639791023_">
			<use xlink:href="#SVGID_00000093883301706692935470000016378763789966299022_"  style="overflow:visible;"/>
		</clipPath>
		<g style="clip-path:url(#SVGID_00000114774635047706300630000015966304236639791023_);">
			
				<linearGradient id="SVGID_00000137096746301887087260000008840594051242120620_" gradientUnits="userSpaceOnUse" x1="372.869" y1="256.7144" x2="372.869" y2="511.0076">
				<stop  offset="0" style="stop-color:#A5DAF0"/>
				<stop  offset="0.8091" style="stop-color:#4D8096"/>
			</linearGradient>
			
				<rect x="-15.631" y="242.695" style="fill:url(#SVGID_00000137096746301887087260000008840594051242120620_);" width="777" height="273"/>
			<g style="opacity:0.3;">
				<defs>
					
						<rect id="SVGID_00000132088463025574090480000008286935319389637809_" x="-15.631" y="242.695" style="opacity:0.3;" width="777" height="273"/>
				</defs>
				<clipPath id="SVGID_00000171679094546004765030000005754756970605433782_">
					<use xlink:href="#SVGID_00000132088463025574090480000008286935319389637809_"  style="overflow:visible;"/>
				</clipPath>
				<g style="clip-path:url(#SVGID_00000171679094546004765030000005754756970605433782_);">
					<path style="opacity:0.3;fill:#FFED65;" d="M173.201,299.252c29.345-12.863,44.596-50.971,32.226-80.528
						c-12.369-29.555-50.217-45.442-79.976-33.569c-29.76,11.872-46.278,49.449-34.905,79.403
						C101.919,294.512,140.064,313.777,173.201,299.252z"/>
					<path style="opacity:0.3;fill:#FFED65;" d="M162.645,275.247c16.889-7.403,25.666-29.335,18.547-46.345
						c-7.119-17.011-28.901-26.155-46.028-19.321c-17.128,6.833-26.634,28.459-20.089,45.699
						C121.62,272.519,143.574,283.606,162.645,275.247z"/>
					<path style="opacity:0.3;fill:#FFED65;" d="M156.763,261.866c9.946-4.359,15.114-17.275,10.922-27.293
						s-17.02-15.401-27.106-11.378c-10.086,4.025-15.685,16.76-11.83,26.912C132.604,260.26,145.532,266.789,156.763,261.866z"/>
					<path style="fill:#FFF982;" d="M154.329,256.329c7.073-3.1,10.749-12.285,7.767-19.409
						c-2.981-7.124-12.103-10.953-19.276-8.091c-7.173,2.861-11.154,11.918-8.413,19.138
						C137.148,255.186,146.342,259.83,154.329,256.329z"/>
				</g>
			</g>
		</g>
	</g>
	<g>
		<defs>
			<rect id="SVGID_00000037664446463466737740000016649178618743729073_" width="750" height="500"/>
		</defs>
		<clipPath id="SVGID_00000029733229854727114800000001838225187567521422_">
			<use xlink:href="#SVGID_00000037664446463466737740000016649178618743729073_"  style="overflow:visible;"/>
		</clipPath>
		<path style="clip-path:url(#SVGID_00000029733229854727114800000001838225187567521422_);fill:#7DBDD4;" d="M-9.642,261.004
			c90.919-5.521,182.108-6.602,273.133-3.239c33.656,1.243,67.291,3.093,100.962,3.841c52.328,1.16,104.716-0.348,156.891-4.518
			c52.225-4.174,104.995-10.995,156.727-2.707c17.592,2.818,34.982,7.377,52.784,8.097c17.801,0.719,36.618-2.885,50.142-14.484
			l14.761,267.428l-805.511,6.389L-9.642,261.004z"/>
		<path style="clip-path:url(#SVGID_00000029733229854727114800000001838225187567521422_);fill:#70AEC4;" d="M780.997,247.994
			c-13.524,11.599-32.341,15.203-50.142,14.484c-17.802-0.72-35.192-5.279-52.784-8.097c-51.732-8.288-104.502-1.467-156.727,2.707
			c-52.175,4.17-104.563,5.678-156.891,4.518c-33.671-0.748-67.306-2.598-100.962-3.841c-91.025-3.363-182.214-2.282-273.133,3.239
			l-0.006,13.187l2.499-0.301c151.704-13.313,304.535-13.761,456.314-1.34c4.585,0.376,9.473,0.88,13.045,3.778
			c3.572,2.899,4.795,9.104,1.19,11.961c-3.75,2.973-10.382,0.89-13.171,4.779c-3.946,5.504,5.516,10.657,12.285,10.906
			c104.933,3.854,210.268-3.291,313.721-21.28l6.645-0.564L780.997,247.994z"/>
		<g style="clip-path:url(#SVGID_00000029733229854727114800000001838225187567521422_);">
			<path style="fill:#70AEC4;" d="M-35.651,302.713c127.415-11.029,255.667-12.371,383.285-4.012
				c10.565,0.693,44.366,1.53,62.564,8.057c9.966,3.575,16.427,10.426,15.429,20.967c-0.664,7.009-5.518,16.135-6.198,23.143
				c-1.214,12.516,7.978,22.945,55.385,14.769c37.27-6.428,58.022-13.714,79.648-19.516c81.629-21.9,131.781-25.284,222.066-27.297
				c-3.814,32.823-0.033,141.988,6.051,173.166c-128.551,8.09-236.919-21.36-406.007-60.814
				c-71.209-16.615-58.08-50.572-49.055-61.319c8.713-10.373,26.312-20.279,26.506-33.824c0.116-8.102-15.033-11.868-27.683-13.514
				c-8.035-1.045-16.033-1.351-25.794-1.371c-116.64-0.242-233.78,7.789-346.673,37.121L-35.651,302.713z"/>
			
				<linearGradient id="SVGID_00000057122702451786951930000016491119356877576874_" gradientUnits="userSpaceOnUse" x1="376.9044" y1="256.1756" x2="376.9044" y2="678.5352">
				<stop  offset="0.2131" style="stop-color:#A5DAF0"/>
				<stop  offset="0.8091" style="stop-color:#4D8096"/>
			</linearGradient>
			<path style="fill:url(#SVGID_00000057122702451786951930000016491119356877576874_);" d="M-34.669,307.658
				c97.809-2.063,195.617-4.126,293.425-6.189c35.826-0.755,84.039-0.12,119.002,7.729c12.923,2.901,38.192,7.483,35.341,18.989
				c-2.469,9.971-21.158,12.457-22.154,22.681c-1.978,20.308,27.956,28.22,71.736,27.956
				c108.331-0.653,184.194-52.54,294.857-44.835c0,0,37.329,151.766,36.534,150.886c-113.87,4.936-358.467-48.211-420.797-65.963
				c-41.67-11.868-46.258-34.461-35.341-49.055c10.181-13.61,29.814-21.248,30.066-38.242c0.114-7.665-14.637-15.692-46.337-17.284
				c-120.981-6.075-241.98,8.739-361.939,25.57C-36.593,331.751-36.35,322.109-34.669,307.658z"/>
		</g>
		
			<linearGradient id="SVGID_00000168093082975382558940000016847943024598553475_" gradientUnits="userSpaceOnUse" x1="227.372" y1="359.7289" x2="258.3279" y2="444.2624">
			<stop  offset="0" style="stop-color:#292940"/>
			<stop  offset="1" style="stop-color:#292940;stop-opacity:0"/>
		</linearGradient>
		
			<path style="opacity:0.18;clip-path:url(#SVGID_00000029733229854727114800000001838225187567521422_);fill:url(#SVGID_00000168093082975382558940000016847943024598553475_);" d="
			M170.276,358.707l24.318,110.052c0,0,97.187-9.231,134.11-30.857l-60.871-78.97L170.276,358.707z"/>
		<g style="clip-path:url(#SVGID_00000029733229854727114800000001838225187567521422_);">
			<path style="fill:#304354;" d="M267.833,358.931c-0.052-6.606-6.127-11.747-12.426-13.738c-6.3-1.991-13.074-1.796-19.541-3.151
				c-10.132-2.122-19.264-7.99-29.509-9.478c-16.828-2.445-34.572,9.033-36.081,26.143
				C201.692,363.468,233.853,363.286,267.833,358.931z"/>
			<g>
				<path style="fill:#3B5166;" d="M238.731,361.635l-9.456-6.547l9.099-9.758c0,0-8.439-2.901-13.846-1.187l-3.961,18.074
					C226.574,362.176,232.627,361.981,238.731,361.635z"/>
				<path style="fill:#3B5166;" d="M213.434,362.194l-0.907-12.118l-22.813-9.363c-10.029,5.507-13.25,13.76-14.284,18.722
					C187.949,361.115,200.595,362.016,213.434,362.194z"/>
				<path style="fill:#3B5166;" d="M253.538,348.495v0.791l1.859,11.057c3.122-0.309,6.263-0.665,9.414-1.047
					C262.57,348.852,253.538,348.495,253.538,348.495z"/>
			</g>
		</g>
		<path style="clip-path:url(#SVGID_00000029733229854727114800000001838225187567521422_);fill:#3B5166;" d="M79.295,379.734
			c0,0-8.004-8.221-1.514-11.682c6.49-3.461,12.331,5.841,12.331,5.841s-1.514-13.197,7.788-14.927
			c9.302-1.731,9.302,14.278,9.302,14.278s6.923-14.494,16.441-13.196c9.519,1.298,9.519,13.845,9.519,13.845
			s2.163-9.302,14.494-8.654c12.331,0.649,5.408,14.495,5.408,14.495H79.295z"/>
		<path style="clip-path:url(#SVGID_00000029733229854727114800000001838225187567521422_);fill:#3B5166;" d="M645.441,313.266
			c0,0-3.894-7.572,0-9.951c3.894-2.38,5.841,4.976,5.841,4.976s-1.947-13.629,4.543-14.278c6.49-0.649,4.976,11.466,4.976,11.466
			s6.923-14.278,17.956-13.197c11.033,1.082,9.302,12.98,9.302,12.98s13.413-9.217,20.119-4.608
			c6.706,4.608,1.082,12.613,1.082,12.613H645.441z"/>
		<path style="clip-path:url(#SVGID_00000029733229854727114800000001838225187567521422_);fill:#3B5166;" d="M273.319,289.154
			c0,0-3.659-3.758-0.692-5.341c2.967-1.582,5.637,2.67,5.637,2.67s-0.692-6.033,3.56-6.824c4.253-0.791,4.253,6.527,4.253,6.527
			s3.165-6.626,7.516-6.033c4.352,0.594,4.352,6.33,4.352,6.33s0.989-4.253,6.626-3.956c5.637,0.297,2.473,6.626,2.473,6.626
			H273.319z"/>
		<path style="clip-path:url(#SVGID_00000029733229854727114800000001838225187567521422_);fill:#3B5166;" d="M321.088,289.154
			c0,0-1.78-3.462,0-4.549s2.67,2.275,2.67,2.275s-0.89-6.231,2.077-6.527c2.967-0.297,2.275,5.242,2.275,5.242
			s3.165-6.528,8.209-6.033c5.044,0.495,4.253,5.934,4.253,5.934s6.132-4.214,9.198-2.107c3.066,2.107,0.495,5.766,0.495,5.766
			H321.088z"/>
		<path style="clip-path:url(#SVGID_00000029733229854727114800000001838225187567521422_);fill:#3B5166;" d="M22.802,284.41
			c0,0-1.78-3.462,0-4.549c1.78-1.088,2.67,2.275,2.67,2.275s-0.89-6.231,2.077-6.527c2.967-0.297,2.275,5.242,2.275,5.242
			s3.165-6.528,8.209-6.033c5.044,0.495,4.253,5.934,4.253,5.934s6.132-4.214,9.198-2.107c3.066,2.107,0.494,5.766,0.494,5.766
			H22.802z"/>
		<path style="clip-path:url(#SVGID_00000029733229854727114800000001838225187567521422_);fill:#3B5166;" d="M582.286,287.176
			h47.472c0,0,4.484-2.506,2.637-5.934c-1.846-3.429-8.176,1.187-8.176,1.187s3.692-10.154-4.747-10.286
			c-8.439-0.132-10.945,10.154-10.945,10.154s-1.648-6.066-3.494-5.341c-1.846,0.725-0.725,3.758-0.725,3.758
			s-2.901-3.824-4.747-3.033c-1.846,0.791-0.33,3.758-0.33,3.758s-6.857-7.583-12.198-5.868c-5.341,1.714-2.506,8.835-2.506,8.835
			s-3.099-4.483-4.945-2.505C577.736,283.879,582.286,287.176,582.286,287.176z"/>
		<path style="clip-path:url(#SVGID_00000029733229854727114800000001838225187567521422_);fill:#3B5166;" d="M375.43,505.409
			h166.509c0,0,15.726-8.788,9.25-20.814c-6.475-12.026-28.677,4.163-28.677,4.163s12.951-35.614-16.651-36.077
			c-29.602-0.463-38.39,35.614-38.39,35.614s-5.781-21.276-12.257-18.732c-6.475,2.544-2.544,13.182-2.544,13.182
			s-10.176-13.413-16.651-10.638c-6.475,2.775-1.156,13.182-1.156,13.182s-24.051-26.595-42.783-20.582
			c-18.732,6.013-8.788,30.989-8.788,30.989s-10.869-15.726-17.345-8.788C359.473,493.846,375.43,505.409,375.43,505.409z"/>
		<path style="clip-path:url(#SVGID_00000029733229854727114800000001838225187567521422_);fill:#3B5166;" d="M124.416,331.501
			H172.4c0,0,4.532-2.533,2.666-5.998c-1.866-3.466-8.264,1.2-8.264,1.2s3.732-10.263-4.798-10.397
			c-8.53-0.133-11.063,10.263-11.063,10.263s-1.666-6.131-3.532-5.398c-1.866,0.733-0.733,3.799-0.733,3.799
			s-2.932-3.865-4.798-3.066c-1.866,0.8-0.333,3.799-0.333,3.799s-6.931-7.664-12.329-5.931c-5.398,1.733-2.533,8.93-2.533,8.93
			s-3.132-4.532-4.998-2.533C119.817,328.169,124.416,331.501,124.416,331.501z"/>
	</g>
	<g>
		<defs>
			<rect id="SVGID_00000169526608418648431970000004182139646408258700_" width="750" height="500"/>
		</defs>
		<clipPath id="SVGID_00000034076906277382745460000017266068747394479784_">
			<use xlink:href="#SVGID_00000169526608418648431970000004182139646408258700_"  style="overflow:visible;"/>
		</clipPath>
		
			<linearGradient id="SVGID_00000014627709667066348960000007102289526277640097_" gradientUnits="userSpaceOnUse" x1="407.1756" y1="524.934" x2="407.1756" y2="349.2856">
			<stop  offset="0" style="stop-color:#FFFFFF"/>
			<stop  offset="1" style="stop-color:#FFFFFF;stop-opacity:0"/>
		</linearGradient>
		
			<path style="opacity:0.75;clip-path:url(#SVGID_00000034076906277382745460000017266068747394479784_);fill:url(#SVGID_00000014627709667066348960000007102289526277640097_);" d="
			M140.101,423.016c8.172-9.17,22.608-12.054,33.676-6.728c5.725,2.755,10.625,7.451,16.855,8.699
			c10.146,2.032,20.237-5.713,30.465-4.142c13.802,2.12,21.329,19.897,35.221,21.312c12.105,1.232,21.065-10.324,31.214-17.033
			c14.924-9.866,36.135-8.995,50.199,2.061c10.261,8.065,17.748,21.246,30.623,23.39c7.588,1.262,15.284-1.845,21.674-6.127
			c6.391-4.282,11.914-9.749,18.266-14.089c20.642-14.102,49.842-14.324,73.284-0.873c-1.877-7.527,7.62-13.014,15.376-12.982
			c7.756,0.033,16.075,2.523,22.921-1.124c12.389-6.597,11.277-28.59,24.758-32.498c7.902-2.291,16.017,3.528,24.23,3.029
			c12.341-0.75,18.959-14.258,27.363-23.327c9.796-10.57,24.756-16.111,39.074-14.474c14.317,1.637,27.64,10.413,34.797,22.921
			l8.204,157.256L136.05,561.328L140.101,423.016z"/>
		<g style="clip-path:url(#SVGID_00000034076906277382745460000017266068747394479784_);">
			<path style="fill:#4A6D82;" d="M-12.073,332.872c11.814-1.881,24.462,5.23,29.887,15.646c-0.499-4.167,0.078-8.459,1.661-12.348
				c0.585-1.438,1.465-2.957,2.958-3.379c1.387-0.393,2.905,0.344,3.806,1.468c0.9,1.125,1.295,2.566,1.566,3.982
				c0.973,5.086,0.614,10.321,1.296,15.433c2.693-3.316,6.389-5.805,10.473-7.054c1.889-0.577,4.196-0.798,5.602,0.588
				c1.235,1.218,1.262,3.185,1.036,4.904c-0.537,4.083-2.054,8.034-4.386,11.912c7.627-3.914,16.094-6.433,24.665-6.327
				c8.572,0.107,17.247,2.987,23.571,8.775c6.324,5.786,10.025,14.603,9.105,22.976c1.025-0.812,1.5-2.112,2.075-3.287
				c0.576-1.175,1.434-2.381,2.718-2.628c1.769-0.341,3.373,1.436,3.55,3.228c0.177,1.792-0.636,3.516-1.028,5.394
				c3.009-2.123,6.258-4.329,9.94-4.421c1.794-0.044,3.761,0.559,4.689,2.095c1.143,1.893,0.215,4.484-1.475,5.91
				s-3.931,1.972-5.367,4.231c6.014-0.682,12.136-1.361,18.087-0.256c5.952,1.104,11.819,4.278,14.712,9.595
				c3.803,6.989,1.646,15.739-0.249,23.689c2.437-3.26,5.472-6.071,8.908-8.252c1.228-0.779,2.813-1.484,4.069-0.751
				c1.231,0.719,1.418,2.404,1.344,3.828c-0.206,3.948-1.353,7.845-2.093,12.101c1.257-2.004,3.877-3.044,6.167-2.447
				c2.29,0.597,4.068,2.783,5.846,5.667c-0.091-2.53,2.339-4.857,4.861-4.639c2.522,0.217,4.52,2.946,5.776,5.347
				c0.478-3.278,2.349-6.329,5.054-8.241c0.963-0.68,2.243-1.226,3.285-0.676c0.87,0.458,1.227,1.504,1.446,2.463
				c0.644,2.822,0.765,5.76,0.368,9.275c6.06-3.421,12.428-6.547,19.294-7.676s14.361-0.039,19.817,4.279
				c5.776,4.572,8.519,12.148,8.882,19.504c0.361,7.358-1.365,14.639-2.921,22.73c2.597-1.734,5.496-3.013,8.526-3.762
				c1.232-0.304,2.717-0.454,3.599,0.457c0.896,0.926,0.675,2.437,0.257,3.655c-0.978,2.855-2.713,5.446-5.125,8.418
				c2.717-0.174,5.474-0.344,8.139,0.213c2.664,0.559,5.272,1.948,6.702,4.265c1.49,2.413,1.505,5.423,1.476,8.259l-268.559,0.762
				L-12.073,332.872z"/>
			<g>
				<defs>
					<path id="SVGID_00000004520127115619072280000015929491422856695226_" d="M-12.073,332.872
						c11.814-1.881,24.462,5.23,29.887,15.646c-0.499-4.167,0.078-8.459,1.661-12.348c0.585-1.438,1.465-2.957,2.958-3.379
						c1.387-0.393,2.905,0.344,3.806,1.468c0.9,1.125,1.295,2.566,1.566,3.982c0.973,5.086,0.614,10.321,1.296,15.433
						c2.693-3.316,6.389-5.805,10.473-7.054c1.889-0.577,4.196-0.798,5.602,0.588c1.235,1.218,1.262,3.185,1.036,4.904
						c-0.537,4.083-2.054,8.034-4.386,11.912c7.627-3.914,16.094-6.433,24.665-6.327c8.572,0.107,17.247,2.987,23.571,8.775
						c6.324,5.786,10.025,14.603,9.105,22.976c1.025-0.812,1.5-2.112,2.075-3.287c0.576-1.175,1.434-2.381,2.718-2.628
						c1.769-0.341,3.373,1.436,3.55,3.228c0.177,1.792-0.636,3.516-1.028,5.394c3.009-2.123,6.258-4.329,9.94-4.421
						c1.794-0.044,3.761,0.559,4.689,2.095c1.143,1.893,0.215,4.484-1.475,5.91s-3.931,1.972-5.367,4.231
						c6.014-0.682,12.136-1.361,18.087-0.256c5.952,1.104,11.819,4.278,14.712,9.595c3.803,6.989,1.646,15.739-0.249,23.689
						c2.437-3.26,5.472-6.071,8.908-8.252c1.228-0.779,2.813-1.484,4.069-0.751c1.231,0.719,1.418,2.404,1.344,3.828
						c-0.206,3.948-1.353,7.845-2.093,12.101c1.257-2.004,3.877-3.044,6.167-2.447c2.29,0.597,4.068,2.783,5.846,5.667
						c-0.091-2.53,2.339-4.857,4.861-4.639c2.522,0.217,4.52,2.946,5.776,5.347c0.478-3.278,2.349-6.329,5.054-8.241
						c0.963-0.68,2.243-1.226,3.285-0.676c0.87,0.458,1.227,1.504,1.446,2.463c0.644,2.822,0.765,5.76,0.368,9.275
						c6.06-3.421,12.428-6.547,19.294-7.676s14.361-0.039,19.817,4.279c5.776,4.572,8.519,12.148,8.882,19.504
						c0.361,7.358-1.365,14.639-2.921,22.73c2.597-1.734,5.496-3.013,8.526-3.762c1.232-0.304,2.717-0.454,3.599,0.457
						c0.896,0.926,0.675,2.437,0.257,3.655c-0.978,2.855-2.713,5.446-5.125,8.418c2.717-0.174,5.474-0.344,8.139,0.213
						c2.664,0.559,5.272,1.948,6.702,4.265c1.49,2.413,1.505,5.423,1.476,8.259l-268.559,0.762L-12.073,332.872z"/>
				</defs>
				<clipPath id="SVGID_00000168092940199215935220000012062686287007488677_">
					<use xlink:href="#SVGID_00000004520127115619072280000015929491422856695226_"  style="overflow:visible;"/>
				</clipPath>
				<g style="clip-path:url(#SVGID_00000168092940199215935220000012062686287007488677_);">
					
						<path style="fill:none;stroke:#2E2854;stroke-width:0.75;stroke-linecap:round;stroke-linejoin:round;stroke-miterlimit:10;" d="
						M182.297,519.778c10.029-30.407,22.996-59.845,38.66-87.771"/>
					
						<path style="fill:none;stroke:#2E2854;stroke-width:0.75;stroke-linecap:round;stroke-linejoin:round;stroke-miterlimit:10;" d="
						M202.79,467.71c11.84-6.27,24.08-11.75,36.64-16.42"/>
				</g>
				<g style="clip-path:url(#SVGID_00000168092940199215935220000012062686287007488677_);">
					
						<path style="fill:none;stroke:#2E2854;stroke-width:0.75;stroke-linecap:round;stroke-linejoin:round;stroke-miterlimit:10;" d="
						M160.577,409.143c-9.583,32.53-17.319,65.604-23.158,99.01"/>
					
						<path style="fill:none;stroke:#2E2854;stroke-width:0.75;stroke-linecap:round;stroke-linejoin:round;stroke-miterlimit:10;" d="
						M144.64,471.35c16.4-11.68,33.56-22.31,51.35-31.76"/>
				</g>
				<g style="clip-path:url(#SVGID_00000168092940199215935220000012062686287007488677_);">
					
						<path style="fill:none;stroke:#2E2854;stroke-width:0.75;stroke-linecap:round;stroke-linejoin:round;stroke-miterlimit:10;" d="
						M52.955,354.419c1.703,53.824-2.832,107.843-13.485,160.629"/>
					
						<path style="fill:none;stroke:#2E2854;stroke-width:0.75;stroke-linecap:round;stroke-linejoin:round;stroke-miterlimit:10;" d="
						M-12.93,374.46c8.16,6.8,16,13.99,23.49,21.521C25.13,410.62,38.38,426.58,50.08,443.6"/>
					
						<path style="fill:none;stroke:#2E2854;stroke-width:0.75;stroke-linecap:round;stroke-linejoin:round;stroke-miterlimit:10;" d="
						M10.56,395.98c-2.35-22.641-2.33-45.53,0.05-68.171"/>
				</g>
				<g style="clip-path:url(#SVGID_00000168092940199215935220000012062686287007488677_);">
					
						<path style="fill:none;stroke:#2E2854;stroke-width:0.75;stroke-linecap:round;stroke-linejoin:round;stroke-miterlimit:10;" d="
						M117.796,509.064c5.493-42.305,8.449-84.939,8.846-127.597"/>
					
						<path style="fill:none;stroke:#2E2854;stroke-width:0.75;stroke-linecap:round;stroke-linejoin:round;stroke-miterlimit:10;" d="
						M123.29,456.67c-4.94-13.26-10.39-26.33-16.33-39.17c-9.33-20.17-19.89-39.79-31.6-58.68c-0.93-1.51-1.88-3.02-2.83-4.52"/>
					
						<path style="fill:none;stroke:#2E2854;stroke-width:0.75;stroke-linecap:round;stroke-linejoin:round;stroke-miterlimit:10;" d="
						M148.34,403.03c-1.37,0.84-2.72,1.7-4.05,2.6c-6.76,4.5-13.05,9.7-18.76,15.469"/>
					
						<path style="fill:none;stroke:#2E2854;stroke-width:0.75;stroke-linecap:round;stroke-linejoin:round;stroke-miterlimit:10;" d="
						M73.67,507.5c9.07-30.69,20.2-60.79,33.29-90"/>
				</g>
				
					<path style="clip-path:url(#SVGID_00000168092940199215935220000012062686287007488677_);fill:none;stroke:#2E2854;stroke-width:0.75;stroke-linecap:round;stroke-linejoin:round;stroke-miterlimit:10;" d="
					M20.543,511.068c-6.27-33.937-18.755-66.715-36.653-96.222"/>
			</g>
			<path style="opacity:0.12;fill:#292940;" d="M27.949,407.374c-13.909,0.343-27.039,6.397-37.966,15.2l1.953,85.204l222.819-0.632
				c1.23-8.073-0.655-16.666-5.765-23.067c-8.523-10.673-24.974-14.017-36.988-7.517c-9.754-11.745-22.074-18.837-35.166-20.49
				c-13.091-1.654-26.787,2.153-37.148,10.324c2.768-9.215,2.213-19.864-2.613-28.174c-2.444-4.207-6.369-8.039-11.219-8.415
				c-5.261-0.408-9.868,3.247-13.865,6.69C64.911,417.987,46.043,406.929,27.949,407.374z"/>
			<path style="opacity:0.4;fill:#D4F4FF;" d="M259.02,498.756c-1.43-2.317-4.038-3.706-6.702-4.265
				c-2.665-0.557-5.422-0.387-8.139-0.213c2.412-2.972,4.147-5.563,5.125-8.418c0.418-1.218,0.639-2.729-0.257-3.655
				c-0.882-0.911-2.367-0.761-3.599-0.457c-3.03,0.749-5.929,2.028-8.526,3.762c1.556-8.091,3.282-15.372,2.921-22.73
				c-0.363-7.356-3.106-14.932-8.882-19.504c-5.456-4.318-12.951-5.408-19.817-4.279s-13.234,4.255-19.294,7.676
				c0.397-3.515,0.276-6.453-0.368-9.275c-0.219-0.959-0.576-2.005-1.446-2.463c-1.042-0.55-2.322-0.004-3.285,0.676
				c-2.705,1.912-4.576,4.963-5.054,8.241c-1.256-2.401-3.254-5.13-5.776-5.347c-2.522-0.218-4.952,2.109-4.861,4.639
				c-1.778-2.884-3.556-5.07-5.846-5.667c-2.29-0.597-4.91,0.443-6.167,2.447c0.74-4.256,1.887-8.153,2.093-12.101
				c0.074-1.424-0.113-3.109-1.344-3.828c-1.256-0.733-2.841-0.028-4.069,0.751c-3.436,2.181-6.471,4.992-8.908,8.252
				c1.895-7.95,4.052-16.7,0.249-23.689c-2.893-5.317-8.76-8.491-14.712-9.595c-5.951-1.105-12.073-0.426-18.087,0.256
				c1.436-2.259,3.677-2.805,5.367-4.231s2.618-4.017,1.475-5.91c-0.928-1.536-2.895-2.139-4.689-2.095
				c-3.682,0.092-6.931,2.298-9.94,4.421c0.392-1.878,1.205-3.602,1.028-5.394c-0.177-1.792-1.781-3.569-3.55-3.228
				c-1.284,0.247-2.142,1.453-2.718,2.628c-0.575,1.175-1.05,2.475-2.075,3.287c0.92-8.373-2.781-17.19-9.105-22.976
				c-6.324-5.788-14.999-8.668-23.571-8.775c-8.571-0.106-17.038,2.413-24.665,6.327c2.332-3.878,3.849-7.829,4.386-11.912
				c0.226-1.719,0.199-3.686-1.036-4.904c-1.406-1.386-3.713-1.165-5.602-0.588c-4.084,1.249-7.78,3.738-10.473,7.054
				c-0.682-5.112-0.323-10.347-1.296-15.433c-0.271-1.416-0.666-2.857-1.566-3.982c-0.901-1.124-2.419-1.861-3.806-1.468
				c-1.493,0.422-2.373,1.941-2.958,3.379c-1.583,3.889-2.16,8.181-1.661,12.348c-5.425-10.416-18.073-17.527-29.887-15.646
				l0.208,9.084c11.38-0.308,22.922,4.826,31.268,13.455c0.392-1.136,1.777-1.725,2.952-1.468c1.175,0.256,2.113,1.187,2.671,2.252
				c0.559,1.065,0.795,2.264,1.732,3.641c1.172-0.888,2.367-1.789,3.752-2.285c1.384-0.496,3.012-0.532,4.25,0.262
				c1.486,0.952,2.083,2.896,1.914,4.653c-0.17,1.757-0.97,3.382-1.229,5.518c8.408-1.183,16.91-2.155,25.378-1.524
				c8.468,0.631,16.972,2.954,23.906,7.856c6.934,4.902,12.138,12.594,13.535,21.11c0.757-1.475,2.809-2.167,4.237-1.327
				c1.428,0.839,1.762,3.124,0.993,4.747c1.235-0.952,3.099-0.981,4.363-0.068c1.177,0.849,1.75,2.346,1.822,3.796
				c0.073,1.452-0.287,2.885,0.083,4.771c4.517-3.369,10.428-4.808,15.988-3.89c5.561,0.918,10.696,4.179,13.891,8.822
				c2.729,3.964,4.023,8.782,4.384,13.582c0.361,4.799-0.166,9.62-0.461,14.573c0.861-0.871,1.736-1.753,2.803-2.353
				c1.068-0.599,2.372-0.889,3.531-0.496c1.239,0.421,2.106,1.528,2.816,2.627c1.349,2.088,2.412,4.362,3.006,7.475
				c1.774-1.542,4.335-2.126,6.602-1.506c2.267,0.621,4.173,2.428,5.308,5.162c0.54-1.129,1.094-2.279,1.963-3.181
				c0.868-0.9,2.122-1.525,3.357-1.325c1.889,0.305,2.965,2.27,4.252,4.252c1.195-1.46,2.419-2.947,4.024-3.938
				c1.604-0.992,3.686-1.414,5.391-0.609c1.706,0.806,2.717,3.082,2.637,5.68c5.909-3.635,12.798-5.827,19.732-5.633
				c6.934,0.195,13.88,2.896,18.697,7.888c4.316,4.472,6.744,10.535,7.581,16.694c0.838,6.158,0.177,12.435-0.807,18.952
				c0.702-0.584,1.423-1.178,2.28-1.494c0.856-0.315,1.89-0.305,2.608,0.261c0.59,0.466,0.873,1.224,1.013,1.963
				c0.355,1.876-0.065,3.887-1.013,5.865c3.082-0.043,6.157,1.293,8.229,3.574c1.673,1.841,2.655,4.274,2.8,6.754l10.122-0.029
				C260.525,504.179,260.51,501.169,259.02,498.756z"/>
		</g>
		<g style="clip-path:url(#SVGID_00000034076906277382745460000017266068747394479784_);">
			<path style="fill:#4A6D82;" d="M508.539,505.92c-7.002-15.836-5.222-35.236,4.547-49.533
				c9.767-14.297,27.192-23.009,44.343-23.161c-1.97-3.204-3.994-6.567-4.289-10.316c-0.079-0.988-0.024-2.022,0.427-2.905
				c0.451-0.883,1.374-1.578,2.364-1.523c0.813,0.046,1.515,0.566,2.133,1.096c1.521,1.305,2.867,2.814,4.678,4.145
				c0.366-4.643,4.516-8.684,9.395-9.244c-3.322-3.136-3.44-9.04-0.245-12.307c3.194-3.266,9.099-3.28,12.635,0.249
				c-1.225-3.746-0.846-7.988,1.024-11.458c0.401-0.745,0.888-1.476,1.594-1.941c0.707-0.467,1.677-0.615,2.4-0.174
				c0.748,0.457,1.042,1.384,1.242,2.237c0.661,2.824,0.932,5.739,1.474,8.675c1.291-2.611,3.254-4.888,5.647-6.55
				c1.391-0.965,3.155-1.743,4.74-1.147c1.347,0.505,2.189,1.912,2.427,3.331c0.238,1.42-0.022,2.87-0.08,4.72
				c4.523-3.888,10.315-6.274,16.265-6.698c5.949-0.424,12.021,1.116,17.719,3.58c-1.145-8.818,1.633-18.075,7.447-24.805
				c5.813-6.729,14.567-10.824,23.556-10.482c-2.024-2.009-3.741-4.325-5.073-6.847c-0.433-0.819-0.83-1.796-0.451-2.641
				c0.475-1.055,1.886-1.291,3.026-1.1c2.39,0.401,4.521,2.101,5.802,4.158c-1.678-2.767-2.812-5.863-3.322-9.059
				c-0.226-1.42-0.256-3.071,0.779-4.07c1.094-1.053,2.963-0.856,4.198,0.027c1.237,0.884,1.992,2.275,2.925,3.896
				c2.212-5.544,6.859-10.064,12.46-12.125c5.602-2.059,12.07-1.627,18.098,1.3c-3.865-5.716-7.319-11.854-8.823-18.588
				c-1.505-6.733-0.874-14.174,2.937-19.927c3.81-5.751,11.149-9.348,18.47-7.463c-2.198-2.314-3.769-5.216-4.504-8.322
				c-0.344-1.454-0.273-3.387,1.113-3.948c1.059-0.428,2.226,0.259,3.092,1.002c2.15,1.843,3.818,4.244,5.709,6.765
				c0.085-2.04,1.094-4.023,2.692-5.292c1.599-1.271,3.758-1.805,6.28-1.408c0.23-1.368,0.101-2.766,0.053-4.153
				c-0.047-1.387-0.005-2.816,0.54-4.093c0.546-1.275,1.695-2.375,3.077-2.498c1.381-0.123,2.852,1.019,3.197,3.005
				c0.316-3.445,2.085-6.733,4.786-8.896c2.7-2.163,6.296-3.171,9.727-2.727l3.994,246.772L508.539,505.92z"/>
			<path style="opacity:0.4;fill:#D4F4FF;" d="M756.77,258.705c-3.431-0.444-7.027,0.564-9.727,2.727
				c-2.701,2.163-4.47,5.451-4.786,8.896c-0.345-1.986-1.816-3.128-3.197-3.005c-1.382,0.123-2.531,1.223-3.077,2.498
				c-0.545,1.277-0.587,2.706-0.54,4.093c0.048,1.387,0.177,2.785-0.053,4.153c-2.522-0.397-4.681,0.137-6.28,1.408
				c-1.598,1.269-2.607,3.252-2.692,5.292c-1.891-2.521-3.559-4.922-5.709-6.765c-0.866-0.743-2.033-1.43-3.092-1.002
				c-1.386,0.561-1.457,2.494-1.113,3.948c0.735,3.106,2.306,6.008,4.504,8.322c-7.321-1.885-14.66,1.712-18.47,7.463
				c-3.811,5.753-4.442,13.194-2.937,19.927c1.504,6.734,4.958,12.872,8.823,18.588c-6.028-2.927-12.496-3.359-18.098-1.3
				c-5.601,2.061-10.248,6.581-12.46,12.125c-0.933-1.621-1.688-3.012-2.925-3.896c-1.235-0.883-3.104-1.08-4.198-0.027
				c-1.035,0.999-1.005,2.65-0.779,4.07c0.51,3.196,1.644,6.292,3.322,9.059c-1.281-2.057-3.412-3.757-5.802-4.158
				c-1.14-0.191-2.551,0.045-3.026,1.1c-0.379,0.845,0.018,1.822,0.451,2.641c1.332,2.522,3.049,4.838,5.073,6.847
				c-8.989-0.342-17.743,3.753-23.556,10.482c-5.814,6.73-8.592,15.987-7.447,24.805c-5.698-2.464-11.77-4.004-17.719-3.58
				c-5.95,0.424-11.742,2.81-16.265,6.698c0.058-1.85,0.318-3.3,0.08-4.72c-0.238-1.419-1.08-2.826-2.427-3.331
				c-1.585-0.596-3.349,0.182-4.74,1.147c-2.393,1.662-4.356,3.939-5.647,6.55c-0.542-2.936-0.813-5.851-1.474-8.675
				c-0.2-0.853-0.494-1.78-1.242-2.237c-0.723-0.441-1.693-0.293-2.4,0.174c-0.706,0.465-1.193,1.196-1.594,1.941
				c-1.87,3.47-2.249,7.712-1.024,11.458c-3.536-3.529-9.441-3.515-12.635-0.249c-3.195,3.267-3.077,9.171,0.245,12.307
				c-4.879,0.56-9.029,4.601-9.395,9.244c-1.811-1.331-3.157-2.84-4.678-4.145c-0.618-0.53-1.32-1.05-2.133-1.096
				c-0.99-0.055-1.913,0.64-2.364,1.523c-0.451,0.883-0.506,1.917-0.427,2.905c0.295,3.749,2.319,7.112,4.289,10.316
				c-17.151,0.152-34.576,8.864-44.343,23.161c-9.769,14.297-11.549,33.697-4.547,49.533l9.817-0.017
				c-2.356-13.775,0.555-28.41,8.082-40.193c8.014-12.543,21.158-21.7,37.764-25.436c-0.805-1.974-1.623-3.999-1.697-6.129
				c-0.074-2.131,0.748-4.423,2.569-5.53c1.821-1.109,4.651-0.489,7.258,1.084c0.558-5.225,5.297-9.678,11.08-9.847
				c-1.011-1.473-2.043-2.991-2.444-4.732c-0.403-1.741-0.036-3.78,1.36-4.895c1.906-1.523,4.785-0.727,6.783,0.674
				c1.999,1.4,3.665,3.344,7.228,4.099c-0.899-2.487,0.217-5.541,2.508-6.863c2.29-1.322,5.493-0.762,9.351,0.65
				c4.265-4.971,10.449-8.253,16.955-8.999c6.508-0.746,13.273,1.051,20.168,4.907c-0.039-8.011,2.735-16.007,7.726-22.273
				c4.991-6.264,12.165-10.756,20.741-12.951c-0.638-1.489-0.629-3.243,0.025-4.725c0.653-1.483,1.941-2.672,3.889-3.205
				c-0.492-1.198-0.987-2.406-1.225-3.679c-0.239-1.273-0.205-2.631,0.335-3.809c0.544-1.191,1.604-2.136,2.849-2.539
				c1.246-0.404,2.658-0.263,4.416,0.464c-0.425-4.033,1.417-8.13,4.409-10.866c2.994-2.738,7.021-4.187,11.064-4.501
				c4.043-0.314,8.111,0.446,12.919,1.638c-1.008-4.816-2.751-9.442-4.137-14.163c-1.387-4.719-2.424-9.638-1.962-14.536
				c0.461-4.898,2.596-9.814,6.548-12.745c4.13-3.062,9.559-3.582,15.151-3.624c-0.348-2.428,0.514-4.998,2.255-6.724
				c1.742-1.726,4.321-2.566,7.068-1.958c-0.841-1.824-0.549-4.114,0.72-5.668c1.27-1.555,3.456-2.297,6.87-0.997
				c0.404-3.834,2.333-7.486,5.274-9.979c1.891-1.603,4.188-2.707,6.61-3.236L756.77,258.705z"/>
			<g>
				<defs>
					<path id="SVGID_00000001653673831582341500000013965584537362478209_" d="M508.539,505.92
						c-7.002-15.836-5.222-35.236,4.547-49.533c9.767-14.297,27.192-23.009,44.343-23.161c-1.97-3.204-3.994-6.567-4.289-10.316
						c-0.079-0.988-0.024-2.022,0.427-2.905c0.451-0.883,1.374-1.578,2.364-1.523c0.813,0.046,1.515,0.566,2.133,1.096
						c1.521,1.305,2.867,2.814,4.678,4.145c0.366-4.643,4.516-8.684,9.395-9.244c-3.322-3.136-3.44-9.04-0.245-12.307
						c3.194-3.266,9.099-3.28,12.635,0.249c-1.225-3.746-0.846-7.988,1.024-11.458c0.401-0.745,0.888-1.476,1.594-1.941
						c0.707-0.467,1.677-0.615,2.4-0.174c0.748,0.457,1.042,1.384,1.242,2.237c0.661,2.824,0.932,5.739,1.474,8.675
						c1.291-2.611,3.254-4.888,5.647-6.55c1.391-0.965,3.155-1.743,4.74-1.147c1.347,0.505,2.189,1.912,2.427,3.331
						c0.238,1.42-0.022,2.87-0.08,4.72c4.523-3.888,10.315-6.274,16.265-6.698c5.949-0.424,12.021,1.116,17.719,3.58
						c-1.145-8.818,1.633-18.075,7.447-24.805c5.813-6.729,14.567-10.824,23.556-10.482c-2.024-2.009-3.741-4.325-5.073-6.847
						c-0.433-0.819-0.83-1.796-0.451-2.641c0.475-1.055,1.886-1.291,3.026-1.1c2.39,0.401,4.521,2.101,5.802,4.158
						c-1.678-2.767-2.812-5.863-3.322-9.059c-0.226-1.42-0.256-3.071,0.779-4.07c1.094-1.053,2.963-0.856,4.198,0.027
						c1.237,0.884,1.992,2.275,2.925,3.896c2.212-5.544,6.859-10.064,12.46-12.125c5.602-2.059,12.07-1.627,18.098,1.3
						c-3.865-5.716-7.319-11.854-8.823-18.588c-1.505-6.733-0.874-14.174,2.937-19.927c3.81-5.751,11.149-9.348,18.47-7.463
						c-2.198-2.314-3.769-5.216-4.504-8.322c-0.344-1.454-0.273-3.387,1.113-3.948c1.059-0.428,2.226,0.259,3.092,1.002
						c2.15,1.843,3.818,4.244,5.709,6.765c0.085-2.04,1.094-4.023,2.692-5.292c1.599-1.271,3.758-1.805,6.28-1.408
						c0.23-1.368,0.101-2.766,0.053-4.153c-0.047-1.387-0.005-2.816,0.54-4.093c0.546-1.275,1.695-2.375,3.077-2.498
						c1.381-0.123,2.852,1.019,3.197,3.005c0.316-3.445,2.085-6.733,4.786-8.896c2.7-2.163,6.296-3.171,9.727-2.727l3.994,246.772
						L508.539,505.92z"/>
				</defs>
				<clipPath id="SVGID_00000064322866255030612640000006643210569259954060_">
					<use xlink:href="#SVGID_00000001653673831582341500000013965584537362478209_"  style="overflow:visible;"/>
				</clipPath>
				<g style="clip-path:url(#SVGID_00000064322866255030612640000006643210569259954060_);">
					
						<path style="fill:none;stroke:#2E2854;stroke-width:0.75;stroke-linecap:round;stroke-linejoin:round;stroke-miterlimit:10;" d="
						M697.166,290.894c26.264,20.913,51.537,43.068,75.709,66.367"/>
					
						<path style="fill:none;stroke:#2E2854;stroke-width:0.75;stroke-linecap:round;stroke-linejoin:round;stroke-miterlimit:10;" d="
						M697.04,324.94c10.22-4.801,21.57-7.171,32.85-6.9"/>
				</g>
				<g style="clip-path:url(#SVGID_00000064322866255030612640000006643210569259954060_);">
					
						<path style="fill:none;stroke:#2E2854;stroke-width:0.75;stroke-linecap:round;stroke-linejoin:round;stroke-miterlimit:10;" d="
						M565.296,411.514c18.371,32.092,33.051,66.294,43.657,101.718"/>
					
						<path style="fill:none;stroke:#2E2854;stroke-width:0.75;stroke-linecap:round;stroke-linejoin:round;stroke-miterlimit:10;" d="
						M588.22,456.95c0.57-25.29,5.13-50.5,13.49-74.37"/>
					
						<path style="fill:none;stroke:#2E2854;stroke-width:0.75;stroke-linecap:round;stroke-linejoin:round;stroke-miterlimit:10;" d="
						M593.31,468.94c-1.689-1.21-3.39-2.391-5.119-3.54c-18.45-12.37-38.801-21.891-60.141-28.08"/>
				</g>
				<g style="clip-path:url(#SVGID_00000064322866255030612640000006643210569259954060_);">
					
						<path style="fill:none;stroke:#2E2854;stroke-width:0.75;stroke-linecap:round;stroke-linejoin:round;stroke-miterlimit:10;" d="
						M637.71,356.829c34.801,51.468,60.713,108.928,76.25,169.082"/>
					
						<path style="fill:none;stroke:#2E2854;stroke-width:0.75;stroke-linecap:round;stroke-linejoin:round;stroke-miterlimit:10;" d="
						M689.519,453.04c-13.3-11.74-27.039-22.96-41.199-33.63v-0.01c-11.87-8.96-24.03-17.55-36.46-25.74"/>
					
						<path style="fill:none;stroke:#2E2854;stroke-width:0.75;stroke-linecap:round;stroke-linejoin:round;stroke-miterlimit:10;" d="
						M639.22,504.79c0.771-28.64,3.811-57.23,9.101-85.39"/>
				</g>
				<g style="clip-path:url(#SVGID_00000064322866255030612640000006643210569259954060_);">
					
						<path style="fill:none;stroke:#2E2854;stroke-width:0.75;stroke-linecap:round;stroke-linejoin:round;stroke-miterlimit:10;" d="
						M685.06,326.68c13.063,64.168,36.332,126.247,68.665,183.192"/>
					
						<path style="fill:none;stroke:#2E2854;stroke-width:0.75;stroke-linecap:round;stroke-linejoin:round;stroke-miterlimit:10;" d="
						M656.44,361.44c15.09,7.199,29.71,15.38,43.75,24.46"/>
					
						<path style="fill:none;stroke:#2E2854;stroke-width:0.75;stroke-linecap:round;stroke-linejoin:round;stroke-miterlimit:10;" d="
						M719.08,438.59c6.87-27.17,19.13-52.96,35.86-75.439"/>
				</g>
				
					<path style="clip-path:url(#SVGID_00000064322866255030612640000006643210569259954060_);fill:none;stroke:#2E2854;stroke-width:0.75;stroke-linecap:round;stroke-linejoin:round;stroke-miterlimit:10;" d="
					M510.37,443.966c16.523,21.455,29.158,45.896,37.11,71.782"/>
			</g>
			<path style="opacity:0.12;fill:#292940;" d="M591.246,486.434c-4.995,5.374-8.387,12.174-9.85,19.358l179.368-0.315
				l-2.768-171.004c-3.39,0.812-6.716,1.867-9.939,3.219c-10.826,4.539-20.451,12.607-25.325,23.286
				c-4.874,10.68-4.419,24.017,2.501,33.499c-10.428,1.991-17.454,6.905-21.369,13.698c-3.916,6.793-4.645,15.336-1.94,22.695
				c-9.896-9.028-21.979-9.905-30.871-4.678c-8.892,5.226-14.004,16.21-12.279,26.379c-6.762-3.918-13.19-6.777-19.958-6.853
				c-6.767-0.077-13.923,3.192-16.801,9.318c-2.65,5.639-1.265,12.256,0.168,18.321
				C610.929,473.151,599.157,477.923,591.246,486.434z"/>
		</g>
	</g>
</g>
</svg>
